<svg xmlns="http://www.w3.org/2000/svg" xmlns:xlink="http://www.w3.org/1999/xlink" viewBox="0,0,256,256" width="18px" height="18px" fill-rule="nonzero"><defs><linearGradient x1="31.287" y1="3.383" x2="31.287" y2="62.905" gradientUnits="userSpaceOnUse" id="color-1"><stop offset="0"

 stop-color="#ffcd00"></stop><stop offset="1" 
 stop-color="#ffcd00"></stop></linearGradient><linearGradient x1="30.914" y1="3.911" x2="30.914" y2="62.581" gradientUnits="userSpaceOnUse" id="color-2"><stop offset="0" stop-color="#ffcd00"></stop><stop offset="1" stop-color="#ffcd00"></stop></linearGradient><linearGradient x1="39.018" y1="3.213" x2="39.018" y2="62.957" gradientUnits="userSpaceOnUse" id="color-3"><stop offset="0" stop-color="#ffcd00"></stop><stop offset="1" stop-color="#ffcd00"></stop></linearGradient><linearGradient x1="30.574" y1="3.373" x2="30.574" y2="62.927" gradientUnits="userSpaceOnUse" id="color-4"><stop offset="0" stop-color="#ffcd00"></stop><stop offset="1" stop-color="#ffcd00"></stop></linearGradient><linearGradient x1="29.622" y1="3.213" x2="29.622" y2="62.957" gradientUnits="userSpaceOnUse" id="color-5"><stop offset="0" stop-color="#ffcd00"></stop><stop offset="1" stop-color="#ffcd00"></stop></linearGradient><linearGradient x1="50.02" y1="0.999" x2="50.02" y2="64.288" gradientUnits="userSpaceOnUse" id="color-6"><stop offset="0" stop-color="#ffcd00"></stop><stop offset="1" stop-color="#ffcd00"></stop></linearGradient><linearGradient x1="32" y1="3.213" x2="32" y2="62.957" gradientUnits="userSpaceOnUse" id="color-7"><stop offset="0" stop-color="#ffcd00"></stop><stop offset="1" 
stop-color="#ffcd00"></stop></linearGradient><linearGradient x1="36.106" y1="3.212" x2="36.106" y2="62.958" gradientUnits="userSpaceOnUse" id="color-8"><stop offset="0" 
stop-color="#ffcd00"></stop><stop offset="1" 
stop-color="#ffcd00"></stop></linearGradient></defs><g fill="none" fill-rule="nonzero" stroke="none" stroke-width="1" stroke-linecap="butt" stroke-linejoin="miter" stroke-miterlimit="10" stroke-dasharray="" stroke-dashoffset="0" font-family="none" font-weight="none" font-size="none" text-anchor="none" style="mix-blend-mode: normal"><g transform="scale(4,4)"><path d="M23.749,48.868c-9.61,2.669 5.846,8.183 18.081,2.971c-2.004,-0.775 -3.439,-1.669 -3.439,-1.669c-5.458,1.027 -7.99,1.107 -12.942,0.546c-4.089,-0.467 -1.7,-1.848 -1.7,-1.848z" fill="url(#color-1)"></path><path d="M40.365,43.613c-7.23,1.364 -11.408,1.32 -16.699,0.785c-4.091,-0.415 -1.412,-2.357 -1.412,-2.357c-10.587,3.442 5.89,7.346 20.684,3.108c-1.573,-0.543 -2.573,-1.536 -2.573,-1.536z" fill="url(#color-2)"></path><path d="M46.036,13.383c0,0 -21.54,5.331 -11.252,17.079c3.035,3.463 -0.797,6.579 -0.797,6.579c0,0 7.706,-3.942 4.167,-8.879c-3.306,-4.605 -5.841,-6.892 7.882,-14.779z" fill="url(#color-3)"></path><path d="M51.041,53.916c0,0 1.768,1.448 -1.947,2.569c-7.063,2.128 -29.395,2.77 -35.599,0.085c-2.23,-0.965 1.952,-2.304 3.268,-2.585c1.372,-0.296 2.156,-0.241 2.156,-0.241c-2.48,-1.737 -16.031,3.412 -6.883,4.886c24.947,4.023 45.476,-1.812 39.005,-4.714z" fill="url(#color-4)"></path><path d="M42.465,38.765c1.199,-0.817 2.857,-1.525 2.857,-1.525c0,0 -4.721,0.841 -9.422,1.237c-5.753,0.481 -11.928,0.574 -15.026,0.161c-7.337,-0.977 4.023,-3.669 4.023,-3.669c0,0 -4.411,-0.297 -9.837,2.32c-6.415,3.095 15.87,4.503 27.405,1.476z" fill="url(#color-5)"></path><path d="M45.276,46.675c-0.054,0.154 -0.236,0.325 -0.236,0.325c15.704,-4.351 9.93,-15.336 2.423,-12.555c-0.659,0.247 -1.005,0.817 -1.005,0.817c0,0 0.415,-0.177 1.345,-0.381c3.795,-0.833 9.231,5.355 -2.527,11.794z" fill="url(#color-6)"></path><path d="M32.225,34.854c-2.293,-5.208 -10.071,-9.766 0.004,-17.76c12.564,-9.966 6.116,-16.447 6.116,-16.447c2.602,10.295 -9.172,13.403 -13.422,19.815c-2.894,4.368 1.421,9.061 7.302,14.392z" fill="url(#color-7)"></path><path d="M45.697,60.706c-9.607,1.804 -21.456,1.593 -28.484,0.437c0,0 1.439,1.188 8.837,1.661c11.256,0.719 28.541,-0.399 28.95,-5.712c0,0 -0.787,2.014 -9.303,3.614z" fill="url(#color-8)"></path></g></g></svg>